<?xml version="1.0" encoding="UTF-8" standalone="no" ?>
<!DOCTYPE svg PUBLIC "-//W3C//DTD SVG 1.1//EN" "http://www.w3.org/Graphics/SVG/1.1/DTD/svg11.dtd">
<svg xmlns="http://www.w3.org/2000/svg" xmlns:xlink="http://www.w3.org/1999/xlink" version="1.1" width="1080" height="1080" viewBox="0 0 1080 1080" xml:space="preserve">
<desc>Created with Fabric.js 5.2.4</desc>
<defs>
</defs>
<rect x="0" y="0" width="100%" height="100%" fill="transparent"></rect>
<g transform="matrix(1 0 0 1 540 540)" id="e58cb68f-e07d-44a4-8c26-82fca2c1c4fe"  >
<rect style="stroke: none; stroke-width: 1; stroke-dasharray: none; stroke-linecap: butt; stroke-dashoffset: 0; stroke-linejoin: miter; stroke-miterlimit: 4; fill: rgb(255,255,255); fill-rule: nonzero; opacity: 1; visibility: hidden;" vector-effect="non-scaling-stroke"  x="-540" y="-540" rx="0" ry="0" width="1080" height="1080" />
</g>
<g transform="matrix(1 0 0 1 540 540)" id="069f33f9-d270-4f3b-ae59-5ce9655fa198"  >
</g>
<g transform="matrix(6.8 0 0 6.8 540 540)" clip-path="url(#CLIPPATH_19)"  >
<clipPath id="CLIPPATH_19" >
	<path transform="matrix(0.12 0 0 0.12 3.41 3.32) translate(-781.25, -781.25)" d="M 0 0 L 1562.5 0 L 1562.5 1562.5 L 0 1562.5 Z" stroke-linecap="round" />
</clipPath>
<path style="stroke: rgb(255,255,255); stroke-width: 0; stroke-dasharray: none; stroke-linecap: butt; stroke-dashoffset: 0; stroke-linejoin: miter; stroke-miterlimit: 4; fill: rgb(255,255,255); fill-rule: nonzero; opacity: 1;" vector-effect="non-scaling-stroke"  transform=" translate(-82.33, -63.79)" d="M 33.290513 88.07436 C 33.290513 83.36441 31.517514 79.764278 27.971516 77.27396 C 24.425518 74.78364 19.268935 73.53848 12.501762 73.53848 L 12.501762 54.130235 C 19.323073 54.130235 24.49319 52.939214 28.01212 50.557168 C 31.531048 48.175127 33.290513 44.76447 33.290513 40.325204 L 33.290513 39.67556 L 33.290513 13.8520359 C 33.290513 5.5690157 35.916177 -0.26428724 41.1675 -3.647873 C 46.418825 -7.031459 55.649248 -8.723251 68.858768 -8.723251 L 68.858768 9.548111 C 63.499166 9.7105259 59.804288 10.739136 57.774137 12.633942 C 55.743989 14.528748 54.728914 17.316824 54.728914 20.998169 L 54.728914 45.278779 C 54.404088 55.456605 48.070016 61.465848 35.726694 63.30652 L 35.726694 64.28099 C 48.39484 66.1758 54.728914 71.91436 54.728914 81.49667 L 54.728914 82.22753 L 54.728914 106.50814 C 54.728914 110.18948 55.730455 112.977558 57.733537 114.87236 C 59.736619 116.76717 63.445028 117.795787 68.858768 117.95819 L 68.858768 136.31076 C 55.649248 136.31076 46.418825 134.61898 41.1675 131.23538 C 35.916177 127.8518 33.290513 121.991428 33.290513 113.654277 L 33.290513 88.07436 Z M 131.37747 113.654277 C 131.37747 119.71766 130.26766 124.29227 128.04804 127.3781 C 125.8284 130.46393 122.16059 132.72415 117.04461 134.1588 C 111.92863 135.59345 104.85017 136.31076 95.80923 136.31076 L 95.80923 117.95819 C 101.16882 117.84992 104.8637 116.87545 106.89385 115.034778 C 108.924 113.19411 109.93908 110.3519 109.93908 106.50814 L 109.93908 82.22753 L 109.93908 81.33426 C 109.93908 76.678447 111.53613 72.90237 114.73024 70.00602 C 117.92434 67.10967 122.63429 65.20133 128.86009 64.28099 L 128.86009 63.30652 C 116.57091 61.465848 110.2639 55.456605 109.93908 45.278779 L 109.93908 20.998169 C 109.93908 17.208552 108.93754 14.393407 106.934459 12.552734 C 104.93137 10.712067 101.22296 9.7105259 95.80923 9.548111 L 95.80923 -8.723251 C 104.85017 -8.723251 111.94216 -8.005931 117.08521 -6.571289 C 122.228267 -5.136647 125.896068 -2.8628796 128.08863 0.25001527 C 130.28119 3.362915 131.37747 7.8969218 131.37747 13.8520359 L 131.37747 39.67556 L 131.37747 40.487619 C 131.37747 45.035158 133.04219 48.445814 136.37165 50.71958 C 139.7011 52.99335 144.96596 54.130235 152.16623 54.130235 L 152.16623 73.53848 C 145.39907 73.53848 140.24248 74.6483 136.69647 76.867938 C 133.15047 79.08756 131.37747 82.823047 131.37747 88.07436 L 131.37747 113.654277 Z" stroke-linecap="round" />
</g>
<g transform="matrix(460.19 0 0 -460.19 424.23 539.5)" clip-path="url(#CLIPPATH_20)"  >
<clipPath id="CLIPPATH_20" >
	<path transform="matrix(0 0 0 0 -0.21 -0.46) translate(-781.25, -781.25)" d="M 0 0 L 1562.5 0 L 1562.5 1562.5 L 0 1562.5 Z" stroke-linecap="round" />
</clipPath>
<path style="stroke: none; stroke-width: 0; stroke-dasharray: none; stroke-linecap: butt; stroke-dashoffset: 0; stroke-linejoin: miter; stroke-miterlimit: 4; fill: rgb(0,0,0); fill-opacity: 0; fill-rule: nonzero; opacity: 1;" vector-effect="non-scaling-stroke"  transform=" translate(-0.18, -0.28)" d="M 0.14013672 0.13183594 C 0.14013672 0.16015625 0.1294759 0.18180339 0.1081543 0.19677735 C 0.08683268 0.2117513 0.055826826 0.21923828 0.015136719 0.21923828 L 0.015136719 0.3359375 C 0.056152345 0.3359375 0.087239589 0.34309898 0.10839844 0.35742188 C 0.1295573 0.37174479 0.14013672 0.3922526 0.14013672 0.4189453 L 0.14013672 0.42285157 L 0.14013672 0.578125 C 0.14013672 0.6279297 0.15592449 0.6630046 0.1875 0.6833496 C 0.21907552 0.70369467 0.2745768 0.7138672 0.3540039 0.7138672 L 0.3540039 0.6040039 C 0.32177735 0.60302737 0.29956056 0.59684249 0.28735353 0.5854492 C 0.27514649 0.57405599 0.26904298 0.5572917 0.26904298 0.53515627 L 0.26904298 0.38916017 C 0.26708985 0.32796226 0.2290039 0.29182945 0.15478516 0.28076173 L 0.15478516 0.27490235 C 0.23095703 0.26350913 0.26904298 0.2290039 0.26904298 0.17138672 L 0.26904298 0.16699219 L 0.26904298 0.020996094 C 0.26904298 -0.0011393229 0.2750651 -0.017903647 0.28710938 -0.029296875 C 0.29915367 -0.040690107 0.3214518 -0.046875 0.3540039 -0.047851564 L 0.3540039 -0.15820313 C 0.2745768 -0.15820313 0.21907552 -0.1480306 0.1875 -0.12768555 C 0.15592449 -0.10734049 0.14013672 -0.07210287 0.14013672 -0.021972657 L 0.14013672 0.13183594 Z" stroke-linecap="round" />
</g>
</svg>